<svg width="120" height="155" viewBox="0 0 120 155" fill="none" xmlns="http://www.w3.org/2000/svg">
<path d="M17.1392 145.194C24.1571 133.304 28.7383 115.522 7.58014 75.9896C-7.62335 47.5831 20.5422 21.5523 51.169 26.1573C54.5721 26.669 88.6864 31.7613 91.2733 59.9818C91.9113 66.9417 94.8229 81.8011 101.365 85.5595C107.908 89.3178 102.119 92.9254 98.4072 94.2594C95.0503 94.2594 94.4051 100.185 98.4072 106.152C99.5742 107.892 103.054 109.806 96.1452 114.269C95.9132 116.763 96.0408 122.552 98.4072 125.753C100.774 128.955 87.7933 130.683 81.0074 131.147C73.6485 132.252 51.0287 123.552 57.1697 125.753L71.0385 129.956C69.8785 136.162 64.1472 148.938 68.184 152" stroke="#B24509" style="stroke:#B24509;stroke:color(display-p3 0.6980 0.2706 0.0353);stroke-opacity:1;" stroke-width="6" stroke-linecap="round"/>
<path d="M63.8863 43.9631C66.0292 42.1844 69.2284 44.0315 68.7595 46.7766L67.7682 52.5799C67.6207 53.443 67.8577 54.3274 68.4169 55.0011L72.1771 59.5313C73.9558 61.6742 72.1087 64.8734 69.3635 64.4045L63.5602 63.4132C62.6972 63.2657 61.8128 63.5027 61.139 64.0619L56.6089 67.8221C54.466 69.6008 51.2668 67.7537 51.7357 65.0085L52.727 59.2052C52.8745 58.3422 52.6375 57.4578 52.0783 56.784L48.3181 52.2539C46.5394 50.111 48.3865 46.9117 51.1316 47.3807L56.9349 48.372C57.798 48.5194 58.6824 48.2825 59.3562 47.7232L63.8863 43.9631Z" fill="#B24509" style="fill:#B24509;fill:color(display-p3 0.6980 0.2706 0.0353);fill-opacity:1;"/>
<path d="M42.3677 5.06901C43.012 3.32777 45.4748 3.32777 46.1191 5.06901L46.556 6.24968C46.7586 6.79712 47.1902 7.22874 47.7376 7.43131L48.9183 7.8682C50.6595 8.51251 50.6595 10.9753 48.9183 11.6196L47.7376 12.0565C47.1902 12.2591 46.7586 12.6907 46.556 13.2381L46.1191 14.4188C45.4748 16.16 43.012 16.16 42.3677 14.4188L41.9308 13.2381C41.7283 12.6907 41.2966 12.2591 40.7492 12.0565L39.5685 11.6196C37.8273 10.9753 37.8273 8.51251 39.5685 7.8682L40.7492 7.43131C41.2966 7.22874 41.7283 6.79712 41.9308 6.24968L42.3677 5.06901Z" fill="#B24509" style="fill:#B24509;fill:color(display-p3 0.6980 0.2706 0.0353);fill-opacity:1;"/>
<path d="M102.329 31.9767C103.296 29.3648 106.99 29.3648 107.956 31.9767L108.612 33.7477C108.915 34.5688 109.563 35.2163 110.384 35.5201L112.155 36.1755C114.767 37.1419 114.767 40.8361 112.155 41.8026L110.384 42.4579C109.563 42.7618 108.915 43.4092 108.612 44.2303L107.956 46.0013C106.99 48.6132 103.296 48.6132 102.329 46.0013L101.674 44.2303C101.37 43.4092 100.723 42.7618 99.9014 42.4579L98.1304 41.8026C95.5185 40.8361 95.5185 37.1419 98.1304 36.1755L99.9014 35.5201C100.723 35.2163 101.37 34.5688 101.674 33.7477L102.329 31.9767Z" fill="#B24509" style="fill:#B24509;fill:color(display-p3 0.6980 0.2706 0.0353);fill-opacity:1;"/>
</svg>
